<?xml version="1.0" encoding="UTF-8"?>
<svg id="home" xmlns="http://www.w3.org/2000/svg" width="50" height="50" viewBox="0 0 50 50">
  <defs>
    <style>
      .cls-1 {
        fill: #221714;
      }
    </style>
  </defs>
  <path class="cls-1" d="M20,25c0-2.76,2.24-5,5-5s5,2.24,5,5-2.24,5-5,5-5-2.24-5-5M17.3,25c0,4.25,3.45,7.7,7.7,7.7s7.7-3.45,7.7-7.7-3.45-7.7-7.7-7.7-7.7,3.45-7.7,7.7M31.21,16.99c0,.99.81,1.8,1.8,1.8.99,0,1.8-.81,1.8-1.8,0-.99-.81-1.8-1.8-1.8h0c-.99,0-1.8.81-1.8,1.8M18.94,37.21c-1.46-.07-2.26-.31-2.79-.52-.7-.27-1.2-.6-1.73-1.12s-.85-1.02-1.12-1.72c-.21-.53-.45-1.32-.52-2.79-.07-1.58-.09-2.06-.09-6.06s.02-4.48.09-6.06c.07-1.46.31-2.26.52-2.79.27-.7.6-1.2,1.12-1.73s1.02-.85,1.73-1.12c.53-.21,1.32-.45,2.79-.52,1.58-.07,2.06-.09,6.06-.09s4.48.02,6.06.09c1.46.07,2.26.31,2.79.52.7.27,1.2.6,1.73,1.12s.85,1.03,1.12,1.73c.21.53.45,1.32.52,2.79.07,1.58.09,2.06.09,6.06s-.01,4.48-.09,6.06c-.07,1.46-.31,2.26-.52,2.79-.27.7-.6,1.2-1.12,1.72s-1.03.85-1.73,1.12c-.53.21-1.32.45-2.79.52-1.58.07-2.06.09-6.06.09s-4.48-.01-6.06-.09M18.82,10.09c-1.6.07-2.69.33-3.64.7-.99.38-1.82.9-2.66,1.73s-1.35,1.67-1.73,2.66c-.37.95-.62,2.04-.7,3.64-.07,1.6-.09,2.11-.09,6.18s.02,4.59.09,6.18c.07,1.6.33,2.69.7,3.64.38.99.9,1.82,1.73,2.66s1.67,1.35,2.66,1.73c.95.37,2.04.62,3.64.7,1.6.07,2.11.09,6.18.09s4.59-.02,6.18-.09c1.6-.07,2.69-.33,3.64-.7.99-.38,1.82-.9,2.66-1.73s1.35-1.67,1.73-2.66c.37-.95.63-2.04.7-3.64.07-1.6.09-2.11.09-6.18s-.02-4.59-.09-6.18c-.07-1.6-.33-2.69-.7-3.64-.38-.99-.9-1.82-1.73-2.66s-1.67-1.35-2.66-1.73c-.95-.37-2.05-.63-3.64-.7-1.6-.07-2.11-.09-6.18-.09s-4.59.02-6.19.09"/>
</svg>